<?xml version="1.0" encoding="utf-8"?>
<!-- Generator: Adobe Illustrator 19.2.1, SVG Export Plug-In . SVG Version: 6.00 Build 0)  -->
<svg version="1.1" id="Layer_1" xmlns="http://www.w3.org/2000/svg" xmlns:xlink="http://www.w3.org/1999/xlink" x="0px" y="0px"
	 viewBox="0 0 612 792" style="enable-background:new 0 0 612 792;" xml:space="preserve">
<style type="text/css">
	.st1{fill:#8A6F53;}
	.st2{fill:#423329;}
</style>
<g>
	<g>
		<path class="st1" d="M254,419.2c-2.1-1.5-2.9-4.4-6.1-4.7c3.1-6.9,6.9-13.6,9.5-20.8c2.1-5.7,6-10.7,10-15.5c0.8-1,1.7-2.6,3.4-2
			c1.4,0.5,0.5,2,0.8,3.1c0.2,0.9,0.3,1.8,0.6,2.7c3.1,10.4,10.9,17.1,20.4,22.4c2.4,1.3,5.3,1.8,8.1,1.8c2.1,0.1,2.8-0.4,2-2.6
			c-3.5-9.1-7.5-18.1-8.2-27.9c-0.3-4.6-1.2-9.2-0.4-14c1.5-9.4,3.9-18.5,8.1-27.2c3.7-7.7,8.5-14.6,15.5-20
			c8.6-6.6,19-10,29.1-13.6c11.9-4.3,24.8-6.1,37.1-9.3c13.4-3.5,27.1-6,40.3-10.4c11.7-3.9,21.4-10.6,30.8-17.6
			c7.6-5.6,15.1-11.4,20.8-19.1c2.6-3.5,8-5.6,12.6-1.2c4.3,4.1,9,7.9,7.1,14.3c-2.9,10.3-2,20.8-2.6,31.2
			c-0.6,9.7,1.2,19.4,0.4,29.1c-0.6-0.1-1.2-0.2-1.6,0.5c-4.5,7.6-10,14.7-16,21.2c-11.7,12.7-23.9,25.1-37.9,35.8
			c-6.8,5.2-13.3,10.8-20,16.2c-0.4-1.6-0.7-3.1-1.2-4.7c-1.4-5.1-3.3-9.8-8-13.4c-4.1-3.2-8.8-3.6-13.5-4.7
			c-8.8-2-17.6-2.1-26.4-0.6c-5.2,0.9-10.3,2.2-15.4,2.9c-4.8,0.7-8.8-0.1-12.3-4.1c-5.4-6-4.9-13.1-5.6-20c-0.5-4.4-1-8.8-2.6-13
			c-0.3-0.8-0.5-1.6-1.6-1.7c-0.9,0-1.1,0.7-1.5,1.3c-5,8.7-8.1,17.9-8.7,27.7c-0.3,5.3-0.4,10.7,0.3,16c0.9,6.7,1.6,13.6,6.3,19.4
			c5,6.2,13.7,9,21.6,5.2c12.7-6.2,25.3-13,39.2-16.9c4.7-1.3,10.9,1.3,11.9,5.7c1,4.6,0.3,9.2-1.8,13.4c-1.9,3.8-4.4,7.4-7,10.9
			c-6.4,8.6-12.8,17.3-17.2,27.1c-2.6,5.8-5.9,11.3-6.2,17.8c0,0,0-0.1,0-0.1c-0.3,0.3-0.5,0.6-0.8,0.9
			c-6.4,8.9-13.3,17.5-19.2,26.7c-7.6,11.8-17,22.6-23.7,35c-3.4,6.2-2.6,11.5,1.2,17c2.6,3.6,5.4,7.1,7.8,10.8
			c5.9,9.3,11.7,18.7,17.1,28.2c4.8,8.4,9.9,16.5,14.9,24.8c1.1,1.9,2,3.9,2.5,6.1c1,4.6,0.2,6.7-3.8,8.5c-3.7,1.7-6.3-0.2-8.5-2.7
			c3.4-2.6,4.2-4.4,1.8-8.6c-3.7-6.8-7.9-13.4-12.2-19.8c-6.3-9.4-12.9-18.5-19.3-27.9c-4.5-6.5-8.9-13.1-13.9-19.3
			c-4.6-5.8-4.4-10.6-1.9-16.8c2.2-5.3,6.5-9.1,9.3-13.8c5.5-9.7,13.7-17.7,20.2-26.8c10.7-14.9,21.7-29.6,26.8-47.3
			c2.3-8.1,0.8-15.8-2.9-23.3c-0.5-0.9-1.2-1.9-2.5-1.7c-1.3,0.3-0.9,1.5-0.9,2.3c0,9.3-5.5,16.7-9.7,24.5
			c-3.4,6.4-8.1,12.2-12.4,18.1c-4.3,5.9-7.4,12.5-12,18.4c-7.5,9.4-15,18.9-23,27.9c-5.8,6.5-11.1,13.3-15.6,20.7
			c-2.7,4.4-3,8.5,0.3,12.7c1.2,1.6,2.1,3.3,3.1,5c-1.6,0.1-1.2,0.9-1,1.9c0.8,3.3,1.9,6.6,3.1,9.8c8.4,22.1,18.9,43.4,29.5,64.6
			c1.6,3.2,2.9,6.5,4.1,9.9c1.8,4.8,0.1,9.7-4,12.8c-0.7,0-1.5,0-2.2,0c0.1-1.1-1.7-1.1-1.5-2.3c0.8-2.9,3.2-5.5,1.5-9
			c-1.4-2.9-3.4-5.5-4.9-8.4c-6.3-11.9-12.4-23.9-18.7-35.9c-3.6-6.9-7.5-13.6-11-20.5c-4.3-8.4-7.7-17.2-13.6-24.9
			c-2.2-2.8-2.6-6.1-0.6-9.7c2.1-3.8,5-7,7.6-10.4c7-9.1,15-17.4,22.5-26.1c4.6-5.4,8.9-11.2,12.8-17.1c6.9-10.6,8.1-22.8,10.2-34.7
			c0.5-2.6-1.2-3.7-4-3c-1.4,0.3-2.8,0.8-4.3,0.8c-14.6,0.8-25.1-6.4-34.3-15.7c-4.1-4.2-6.2-9.5-8.6-14.6c-1.1-2.4-2.2-2.5-4-0.8
			c-2.3,2.2-4.7,4.3-6.9,6.7C260.2,415.1,257.6,417.7,254,419.2z"/>
		<path class="st2" d="M493.4,317.7c0.9-9.7-0.9-19.4-0.4-29.1c0.6-10.4-0.3-20.9,2.6-31.2c1.8-6.4-2.8-10.2-7.1-14.3
			c-4.6-4.3-10-2.3-12.6,1.2c-5.6,7.7-13.1,13.5-20.8,19.1c-9.5,7-19.1,13.7-30.8,17.6c-13.2,4.4-26.9,6.9-40.3,10.4
			c-12.4,3.2-25.2,5-37.1,9.3c-10.1,3.6-20.5,7-29.1,13.6c-7,5.4-11.8,12.3-15.5,20c-4.2,8.7-6.6,17.8-8.1,27.2
			c-0.8,4.7,0.1,9.3,0.4,14c0.6,9.8,4.6,18.8,8.2,27.9c0.9,2.2,0.1,2.6-2,2.6c-2.9-0.1-5.8-0.5-8.1-1.8
			c-9.4-5.3-17.2-12.1-20.4-22.4c-0.3-0.9-0.4-1.8-0.6-2.7c-0.2-1.1,0.6-2.6-0.8-3.1c-1.7-0.6-2.6,1-3.4,2c-4,4.8-7.9,9.8-10,15.5
			c-2.6,7.2-6.4,13.8-9.5,20.8c-3.9,2.1-5.8,5.8-8.3,9c-8.2,10.3-15,21.4-22.6,32.1c-0.8-0.6-0.7-1.4-0.7-2.2
			c-0.3-7.6,1-15,2.8-22.3c3.8-15.9,10.2-30.9,17.8-45.5c1.3-2.4,2.9-4.8,3-7.6c0.1,0,0.2,0,0.3-0.1c0,0,0-0.1,0.1-0.2
			c-0.1,0.1-0.2,0.2-0.3,0.3c-7,4.7-10.8,11.7-15.5,18c-4.5,6.1-9.5,12.1-12.3,19.1c-5.5,13.6-11.8,26.8-17.3,40.4
			c-5.2,12.8-11.8,25-18.9,37.1c-6.5,11.1-11.6,23-19.1,33.6c-9.9,13.7-23.5,23.6-40,30.1c-10.1,4-20.6,5-31,2.8
			c-10.7-2.3-20.8-6.7-29.4-13.5c-4.1-3.2-8-7.1-13.4-8.8c-0.6-0.4-0.6-1.3-1.5-1.3c0-1.8,0-3.7,0-5.5c2-0.6,3.5,0.3,5.1,1.1
			c8.7,4.5,16.6,10.2,25.8,13.9c17.7,7,35.3,6.8,51.6-3.2c14-8.5,23-21.1,29.3-35.3c11.2-25.3,19.7-51.4,27.6-77.7
			c2.9-9.4,6.4-18.7,10.4-27.8c3.7-8.4,7.7-16.5,12.1-24.5c1.5-2.8,3.5-5.2,5.4-7.7c8.2-10.5,17.1-20.3,26.9-29.6
			c7.1-6.7,13.4-14.3,21.1-20.5c13.3-10.8,26.1-22.4,41.3-30.8C317.9,277,339,270,361,265.2c18.9-4.1,38.6-4.1,57.3-8.9
			c13-3.3,25.8-7.6,34.6-18.2c3.2-3.9,7.5-6.9,10.3-11.1c1.5-2.3,2.3-4.5,1.9-7.4c-0.9-8.1-0.3-16.2,1-24.3c1.2-7,2.2-14,1.2-21.1
			c-0.7-5-4.1-8.6-8-11.6c-6.4-5-9.2-11.6-11.4-18.7c-0.8-2.6-1.3-5.4-1.8-8.1c-1.2-5.7,2.6-10.1,8.9-9.8c7.9,0.4,15.1,2.8,21.6,6.9
			c7.2,4.9,13.9,10.4,19.5,16.9c3.1,3.6,5.5,7.5,4.1,12.5c-1.1,4-1.8,8-2.5,12c-0.6,3.1-1.6,6.3-1.1,9.5c0.7,4.2,1.1,8.3,1.5,12.5
			c0.2,2.4,0.7,4.6,1.9,6.9c2.9,5.4,8.4,7.8,13.3,10.9c1,0.6,2.3,0.9,0.6,2c-4.7,3.2-5.1,7.7-4.5,12.5c0.4,2.7,1.1,5.3,1.9,7.9
			c1.5,5.1,1.3,10.4,2.8,15.5c2,6.5,1.1,12.9-2.3,18.9c-0.9,1.5-1.6,3.1-2.2,4.7c-2.6,7-2.6,14.4-2.8,21.6
			c-0.2,11.5,0.2,23-0.1,34.5c-0.2,8.1,2,16.1,1.4,24.2c-0.4,5.6,0.3,11.6-4.6,16.1c-1.8,1.7-3.5,3.6-5.5,5.1
			c-5.2,3.8-9.4,9.3-17.3,8.3c-1.8-1.9-0.5-3.1,1.1-4.2c1.4-0.9,2.9-1.8,4.4-2.5c6.6-3.4,9.5-9.2,10.9-15.6
			c2.4-10.5,2.1-21.1-1.2-31.5C494.6,327.3,495,322.3,493.4,317.7z M461,136.2c-4.9-0.1-5.7,0.9-4.4,4.7c0.2,0.5,0.4,1.1,0.6,1.6
			c3.6,8.6,10.6,14.9,17.2,21.5c3.4,3.4,6,3.8,10.5,2c4.3-1.7,6.7-6,5-8.9c-6-10.2-16.3-15.5-26.7-20.5
			C462.4,136.1,461.3,136.2,461,136.2z"/>
		<path class="st1" d="M480.9,385.7c7.9,1.1,12.1-4.5,17.3-8.3c2-1.5,3.6-3.4,5.5-5.1c4.9-4.5,4.2-10.5,4.6-16.1
			c0.6-8.1-1.6-16.1-1.4-24.2c0.3-11.5-0.1-23,0.1-34.5c0.1-7.3,0.2-14.6,2.8-21.6c0.6-1.6,1.3-3.2,2.2-4.7c3.4-6,4.3-12.4,2.3-18.9
			c-1.5-5.1-1.3-10.4-2.8-15.5c-0.8-2.6-1.5-5.3-1.9-7.9c-0.6-4.8-0.3-9.3,4.5-12.5c1.7-1.1,0.5-1.4-0.6-2
			c-4.9-3.1-10.4-5.5-13.3-10.9c-1.2-2.2-1.7-4.5-1.9-6.9c-0.4-4.2-0.7-8.4-1.5-12.5c-0.6-3.2,0.5-6.3,1.1-9.5c0.7-4,1.4-8.1,2.5-12
			c1.3-5-1.1-9-4.1-12.5c-5.6-6.5-12.3-12-19.5-16.9c1.8-0.9,1.2-2.8,1.7-4.2c1.4-4.1,4.1-7,7.9-9.2c2.2,0,4.4,0,6.6,0
			c4.6,2,8.9,4.3,13,7.2c5.2,3.6,7.8,7.9,8.2,13.7c0.1,2.3,0.5,4.6,0.1,6.8c-1.2,7.5,4.1,11.1,9.6,14.6c5.1,3.1,10.6,5.6,14.8,9.8
			c-2.4,0.1-4.9,0.1-7.3,0.2c-1.6,0.1-2.6,1.2-2.9,2.7c-0.3,1.3-0.1,2.6,0.9,3.5c1.3,1.2,2.4,0,3.6-0.6c4.2-2.2,6.3-1.4,8.2,2.7
			c1.2,2.7,2.2,5.8,6.5,5.3c2,0.6,3.2,2,4.4,3.4c4.9,5.6,11,10,17.2,14.2c-6.3,1.7-7.1,4.3-2.8,8.6c1,1,2.3,1.9,1.6,3.5
			c-0.7,1.6-2.4,2.5-4.1,2.5c-4.2,0-8.3-0.5-10.8-4.4c-0.9-1.4-2-2.6-3.1-3.8c-0.9-1-2-1.7-3.5-0.7c-1.6,1.1-0.7,2.1,0.1,3.2
			c4,5.6,8.7,10.2,16.8,9.6c-1.9,2.3-4.7,2.9-7.4,3.1c-8.5,0.6-17,1.5-25.6-0.4c-5.5-1.2-7.9,1.5-7.8,6.6c0.1,8.4,3.5,16.4,2.7,24.8
			c-0.6,6.3-1.5,12.7-2.2,19c-2.1,18.4-6.9,36.4-6.7,55.1c0.1,9.2-0.3,18.5-0.8,27.8c-0.3,6.1-1.7,12-4.2,17.7
			c-3.5,7.8-11.6,8.8-19,10.7C488.6,386.8,484.6,387.8,480.9,385.7z"/>
		<path class="st2" d="M368.3,459.8c0.3-6.5,3.6-12,6.2-17.8c4.4-9.8,10.7-18.5,17.2-27.1c2.6-3.5,5.1-7,7-10.9
			c2.1-4.2,2.7-8.8,1.8-13.4c-0.9-4.4-7.2-7.1-11.9-5.7c-13.9,4-26.5,10.7-39.2,16.9c-7.9,3.8-16.6,1-21.6-5.2
			c-4.7-5.8-5.4-12.7-6.3-19.4c-0.7-5.3-0.6-10.7-0.3-16c0.5-9.8,3.7-19,8.7-27.7c0.3-0.6,0.6-1.4,1.5-1.3c1.1,0,1.3,0.9,1.6,1.7
			c1.6,4.2,2.1,8.6,2.6,13c0.8,6.9,0.2,14,5.6,20c3.6,4,7.5,4.8,12.3,4.1c5.2-0.8,10.3-2.1,15.4-2.9c8.8-1.5,17.7-1.5,26.4,0.6
			c4.7,1.1,9.4,1.5,13.5,4.7c4.7,3.6,6.6,8.3,8,13.4c0.4,1.5,0.8,3.1,1.2,4.7c-0.5,9.5-3,18.3-9.2,26.2c-3.8,4.8-7.9,9.2-12.1,13.7
			C387.7,441.1,377.9,450.4,368.3,459.8z"/>
		<path class="st2" d="M290.9,539.3c-1-1.7-1.9-3.5-3.1-5c-3.3-4.2-3-8.3-0.3-12.7c4.5-7.4,9.8-14.2,15.6-20.7
			c8-9.1,15.5-18.5,23-27.9c4.7-5.8,7.7-12.4,12-18.4c4.3-5.9,8.9-11.8,12.4-18.1c4.2-7.8,9.7-15.2,9.7-24.5c0-0.9-0.3-2.1,0.9-2.3
			c1.3-0.3,2,0.8,2.5,1.7c3.7,7.5,5.2,15.2,2.9,23.3c-5,17.7-16.1,32.3-26.8,47.3c-6.5,9.1-14.7,17.1-20.2,26.8
			c-2.7,4.8-7.1,8.5-9.3,13.8c-2.5,6.2-2.8,11,1.9,16.8c4.9,6.1,9.4,12.8,13.9,19.3c6.4,9.3,13.1,18.5,19.3,27.9
			c4.3,6.5,8.5,13,12.2,19.8c2.3,4.3,1.6,6.1-1.8,8.6c-7.7-7.4-14.4-15.5-20.6-24c-8.9-12.1-17.7-24.3-28.3-35.2
			C301.5,550.3,295.9,545,290.9,539.3z"/>
		<path class="st2" d="M563.3,221.7c-8.1,0.7-12.8-4-16.8-9.6c-0.8-1.1-1.6-2.1-0.1-3.2c1.5-1,2.6-0.3,3.5,0.7
			c1.1,1.2,2.2,2.5,3.1,3.8c2.5,3.9,6.6,4.4,10.8,4.4c1.7,0,3.4-0.9,4.1-2.5c0.7-1.6-0.6-2.5-1.6-3.5c-4.3-4.3-3.5-6.9,2.8-8.6
			c5,4.8,3.1,14.5-3.5,17.4C564.9,220.9,564.1,221.3,563.3,221.7z"/>
		<path class="st2" d="M547.5,185.6c-4.3,0.5-5.3-2.6-6.5-5.3c-1.9-4.1-3.9-4.9-8.2-2.7c-1.1,0.6-2.2,1.8-3.6,0.6
			c-1-0.9-1.2-2.2-0.9-3.5c0.3-1.5,1.3-2.5,2.9-2.7c2.4-0.2,4.9-0.2,7.3-0.2C543.9,175.1,545.3,180.6,547.5,185.6z"/>
		<path class="st2" d="M367.6,460.6c0.3-0.3,0.5-0.6,0.8-0.9C368.1,460,367.8,460.3,367.6,460.6z"/>
		<path class="st1" d="M43.1,536.6c5.4,1.7,9.2,5.6,13.4,8.8c8.7,6.8,18.7,11.2,29.4,13.5c10.3,2.3,20.9,1.2,31-2.8
			c16.5-6.5,30.1-16.4,40-30.1c7.5-10.5,12.6-22.4,19.1-33.6c7-12,13.6-24.3,18.9-37.1c5.5-13.6,11.8-26.8,17.3-40.4
			c2.8-7,7.7-13,12.3-19.1c4.7-6.3,8.6-13.3,15.5-18l0,0c-0.1,2.9-1.7,5.2-3,7.6c-7.6,14.6-14.1,29.6-17.8,45.5
			c-1.7,7.3-3.1,14.7-2.8,22.3c0,0.8-0.1,1.6,0.7,2.2c-10.3,18.9-18.9,38.6-29,57.6c-6.5,12.3-13.4,24.5-23.1,35
			c-16.8,18.1-38,26.2-63.8,23.8c-12.6-1.2-24.9-3.4-35.7-9.6c-6.9-4-13.8-8.5-17.4-15.9C46.5,543.1,43.9,540.3,43.1,536.6z"/>
		<path class="st2" d="M254,419.2c3.6-1.4,6.2-4.1,8.6-6.7c2.2-2.3,4.6-4.5,6.9-6.7c1.8-1.7,2.8-1.5,4,0.8
			c2.4,5.1,4.4,10.5,8.6,14.6c9.2,9.3,19.7,16.5,34.3,15.7c1.4-0.1,2.9-0.5,4.3-0.8c2.8-0.7,4.5,0.4,4,3
			c-2.2,11.9-3.3,24.1-10.2,34.7c-3.9,5.9-8.2,11.7-12.8,17.1c-7.4,8.8-15.5,17-22.5,26.1c-2.6,3.4-5.5,6.7-7.6,10.4
			c-2,3.6-1.6,6.9,0.6,9.7c5.9,7.7,9.3,16.5,13.6,24.9c3.5,6.9,7.4,13.7,11,20.5c6.3,12,12.4,24,18.7,35.9c1.5,2.8,3.5,5.4,4.9,8.4
			c1.7,3.5-0.7,6.1-1.5,9c-4-2.6-6-6.6-8.3-10.3c-5-8.1-10.4-16-16-23.8c-5.6-7.9-9.6-16.7-14.4-25c-3.2-5.6-6.4-11.3-9.8-16.8
			c-5.1-8.2-10.6-16.2-15-24.7c-2.6-5-3.1-7.6,0.9-11.7c5.3-5.5,10.5-11.1,16.8-15.8c11.1-8.2,20.1-18.4,25.7-30.4
			c5.1-11,2.6-23.8-11.8-28.5c-11.4-3.7-20.3-10-26.9-19.2C257.7,426.4,256,422.7,254,419.2z"/>
		<path class="st1" d="M461,136.2c0.3,0,1.4,0,2.2,0.3c10.5,5.1,20.8,10.4,26.7,20.5c1.7,2.9-0.6,7.1-5,8.9c-4.5,1.8-7.1,1.5-10.5-2
			c-6.6-6.6-13.6-12.8-17.2-21.5c-0.2-0.5-0.4-1.1-0.6-1.6C455.3,137.1,456.1,136,461,136.2z"/>
		<path class="st1" d="M240,377.9c0.1-0.1,0.2-0.2,0.3-0.3c0,0.1,0,0.2-0.1,0.2C240.2,377.9,240.1,377.9,240,377.9
			C240,378,240,377.9,240,377.9z"/>
	</g>
</g>
</svg>
